<svg width="640" height="422" viewBox="0 0 640 422" fill="none" xmlns="http://www.w3.org/2000/svg">
<path d="M0 21.1C0 9.4468 9.44679 0 21.1 0H654.1C665.753 0 675.2 9.44679 675.2 21.1V400.9C675.2 412.553 665.753 422 654.1 422H21.1C9.44679 422 0 412.553 0 400.9V21.1Z" fill="#FBFAFC"/>
<path d="M0 0H675V31.65H0V0Z" fill="#2F1160"/>
<rect x="21.0996" y="10.55" width="10.55" height="10.55" rx="5.275" fill="white"/>
<rect x="36.9248" y="10.55" width="10.55" height="10.55" rx="5.275" fill="white"/>
<rect x="52.75" y="10.55" width="10.55" height="10.55" rx="5.275" fill="white"/>
<path d="M21.1 5.275H654.1V-5.275H21.1V5.275ZM669.925 21.1V400.9H680.475V21.1H669.925ZM654.1 416.725H21.1V427.275H654.1V416.725ZM5.275 400.9V21.1H-5.275V400.9H5.275ZM21.1 416.725C12.3601 416.725 5.275 409.64 5.275 400.9H-5.275C-5.275 415.466 6.53349 427.275 21.1 427.275V416.725ZM669.925 400.9C669.925 409.64 662.84 416.725 654.1 416.725V427.275C668.666 427.275 680.475 415.466 680.475 400.9H669.925ZM654.1 5.275C662.84 5.275 669.925 12.3601 669.925 21.1H680.475C680.475 6.53349 668.666 -5.275 654.1 -5.275V5.275ZM21.1 -5.275C6.53349 -5.275 -5.275 6.5335 -5.275 21.1H5.275C5.275 12.3601 12.3601 5.275 21.1 5.275V-5.275Z" fill="#2F1160"/>
</svg>
